<?xml version="1.0" standalone="no"?><svg xmlns="http://www.w3.org/2000/svg" viewBox="0 0 1440 320"><path fill="#3f48cc" fill-opacity="1" d="M0,192L26.7,213.3C53.3,235,107,277,160,261.3C213.3,245,267,171,320,122.7C373.3,75,427,53,480,42.7C533.3,32,587,32,640,58.7C693.3,85,747,139,800,186.7C853.3,235,907,277,960,256C1013.3,235,1067,149,1120,122.7C1173.3,96,1227,128,1280,160C1333.3,192,1387,224,1413,240L1440,256L1440,320L1413.3,320C1386.7,320,1333,320,1280,320C1226.7,320,1173,320,1120,320C1066.7,320,1013,320,960,320C906.7,320,853,320,800,320C746.7,320,693,320,640,320C586.7,320,533,320,480,320C426.7,320,373,320,320,320C266.7,320,213,320,160,320C106.7,320,53,320,27,320L0,320Z"></path></svg>